<?xml version="1.0" encoding="utf-8"?>
<!-- Generator: Adobe Illustrator 24.1.1, SVG Export Plug-In . SVG Version: 6.00 Build 0)  -->
<svg version="1.1" id="Layer_1" xmlns="http://www.w3.org/2000/svg" xmlns:xlink="http://www.w3.org/1999/xlink" x="0px" y="0px"
	 viewBox="0 0 50 39" style="enable-background:new 0 0 50 39;" xml:space="preserve">
<style type="text/css">
	.st0{fill:#423148;}
</style>
<g>
	<polyline class="st0" points="25.25,3.21 17.79,16.14 25.25,29.07 28.61,23.26 24.68,16.47 24.5,16.14 24.68,15.81 28.61,9.02 
		25.25,3.21 	"/>
	<polyline class="st0" points="17.79,3.21 10.32,16.14 17.79,29.07 21.14,23.26 20.57,22.28 17.79,27.1 11.45,16.14 17.79,5.17 	"/>
	<polyline class="st0" points="17.79,5.17 20.57,10 21.14,9.02 17.79,3.21 	"/>
	<polygon class="st0" points="32.55,14.56 32.56,14.56 32.56,12.48 27.85,20.63 28.44,21.67 	"/>
	<polygon class="st0" points="32.55,11.71 32.56,11.71 32.56,9.63 27.02,19.21 27.62,20.24 	"/>
	<polyline class="st0" points="32.56,3.49 25.25,16.14 25.98,17.39 32.55,6 32.56,6.01 32.56,3.49 	"/>
	<polygon class="st0" points="32.55,8.86 32.56,8.86 32.56,6.77 26.2,17.78 26.8,18.82 	"/>
	<polyline class="st0" points="32.88,3.49 32.88,28.79 40.19,16.14 32.88,3.49 	"/>
	<polygon class="st0" points="32.55,17.41 32.56,17.41 32.56,15.33 28.67,22.06 29.27,23.09 	"/>
	<polygon class="st0" points="32.55,20.26 32.56,20.27 32.56,18.18 29.49,23.48 30.09,24.52 	"/>
	<polygon class="st0" points="32.56,26.07 31.77,27.43 32.56,28.79 	"/>
	<polygon class="st0" points="31.55,27.04 32.55,25.3 32.56,25.31 32.56,23.88 31.14,26.33 31.55,27.04 	"/>
	<polygon class="st0" points="32.55,23.11 32.56,23.12 32.56,21.03 30.32,24.91 30.91,25.94 	"/>
	<g>
		<path class="st0" d="M16.14,33.06h-1.26v1.01h1.16v0.47h-1.16v1.41h-0.56v-3.36h1.81V33.06z"/>
		<path class="st0" d="M18.31,35.94h-0.53v-0.37h-0.01C17.6,35.86,17.36,36,17.04,36c-0.24,0-0.42-0.06-0.55-0.19s-0.2-0.3-0.2-0.51
			c0-0.45,0.26-0.72,0.78-0.79l0.71-0.1c0-0.34-0.16-0.51-0.49-0.51c-0.29,0-0.54,0.1-0.77,0.3v-0.48c0.25-0.15,0.55-0.22,0.88-0.22
			c0.61,0,0.91,0.3,0.91,0.9V35.94z M17.78,34.77l-0.5,0.07c-0.16,0.02-0.27,0.06-0.35,0.11c-0.08,0.06-0.12,0.15-0.12,0.29
			c0,0.1,0.04,0.18,0.11,0.25c0.07,0.06,0.17,0.1,0.29,0.1c0.17,0,0.3-0.06,0.41-0.17c0.11-0.12,0.16-0.26,0.16-0.44V34.77z"/>
		<path class="st0" d="M18.82,35.87v-0.5c0.2,0.15,0.43,0.23,0.67,0.23c0.33,0,0.49-0.1,0.49-0.29c0-0.05-0.01-0.1-0.04-0.14
			s-0.07-0.07-0.11-0.1c-0.05-0.03-0.1-0.06-0.17-0.08s-0.14-0.05-0.22-0.08c-0.1-0.04-0.19-0.08-0.27-0.12
			c-0.08-0.04-0.14-0.09-0.2-0.15c-0.05-0.06-0.09-0.12-0.12-0.19s-0.04-0.15-0.04-0.25c0-0.12,0.03-0.22,0.08-0.31
			s0.13-0.16,0.22-0.22c0.09-0.06,0.2-0.11,0.31-0.14c0.12-0.03,0.24-0.05,0.36-0.05c0.22,0,0.42,0.03,0.6,0.1v0.48
			c-0.17-0.12-0.36-0.17-0.58-0.17c-0.07,0-0.13,0.01-0.19,0.02c-0.06,0.01-0.1,0.03-0.14,0.06c-0.04,0.02-0.07,0.06-0.09,0.09
			c-0.02,0.04-0.03,0.07-0.03,0.12c0,0.05,0.01,0.1,0.03,0.13c0.02,0.04,0.05,0.07,0.1,0.09c0.04,0.03,0.09,0.05,0.15,0.07
			c0.06,0.02,0.13,0.05,0.21,0.07c0.1,0.04,0.2,0.09,0.28,0.13c0.08,0.04,0.15,0.09,0.21,0.15c0.06,0.06,0.1,0.12,0.13,0.19
			c0.03,0.07,0.05,0.16,0.05,0.26c0,0.12-0.03,0.23-0.08,0.32c-0.06,0.09-0.13,0.17-0.22,0.22s-0.2,0.1-0.32,0.13
			C19.77,35.99,19.64,36,19.5,36C19.24,36,19.01,35.96,18.82,35.87z"/>
		<path class="st0" d="M23.17,35.94h-0.54v-1.31c0-0.47-0.16-0.71-0.48-0.71c-0.16,0-0.29,0.07-0.4,0.21
			c-0.11,0.14-0.16,0.31-0.16,0.53v1.29h-0.55v-3.55h0.55v1.55h0.01c0.18-0.3,0.44-0.45,0.78-0.45c0.53,0,0.8,0.33,0.8,0.98V35.94z"
			/>
		<path class="st0" d="M24.11,33.04c-0.09,0-0.17-0.03-0.23-0.09s-0.09-0.13-0.09-0.22c0-0.09,0.03-0.16,0.09-0.22
			s0.14-0.09,0.23-0.09c0.09,0,0.17,0.03,0.23,0.09s0.1,0.13,0.1,0.22c0,0.08-0.03,0.16-0.1,0.22
			C24.28,33.01,24.2,33.04,24.11,33.04z M24.37,35.94h-0.54v-2.4h0.54V35.94z"/>
		<path class="st0" d="M26.15,36c-0.37,0-0.67-0.11-0.89-0.34c-0.22-0.22-0.33-0.52-0.33-0.89c0-0.4,0.12-0.72,0.35-0.94
			c0.23-0.23,0.54-0.34,0.93-0.34c0.37,0,0.67,0.11,0.88,0.33c0.21,0.22,0.31,0.53,0.31,0.92c0,0.38-0.11,0.69-0.34,0.92
			C26.83,35.88,26.53,36,26.15,36z M26.17,33.92c-0.21,0-0.38,0.07-0.5,0.22c-0.12,0.15-0.19,0.35-0.19,0.61
			c0,0.25,0.06,0.45,0.19,0.59c0.13,0.14,0.29,0.22,0.5,0.22c0.21,0,0.38-0.07,0.49-0.21s0.17-0.34,0.17-0.61
			c0-0.26-0.06-0.47-0.17-0.61C26.55,33.99,26.39,33.92,26.17,33.92z"/>
		<path class="st0" d="M30.09,35.94h-0.54v-1.35c0-0.45-0.16-0.67-0.48-0.67c-0.17,0-0.3,0.06-0.41,0.19s-0.16,0.28-0.16,0.47v1.37
			h-0.55v-2.4h0.55v0.4h0.01c0.18-0.3,0.44-0.45,0.78-0.45c0.26,0,0.46,0.08,0.6,0.25c0.14,0.17,0.21,0.41,0.21,0.73V35.94z"/>
		<path class="st0" d="M32.2,36c-0.48,0-0.87-0.16-1.16-0.47c-0.29-0.31-0.44-0.72-0.44-1.23c0-0.54,0.15-0.97,0.45-1.29
			c0.3-0.32,0.7-0.48,1.21-0.48c0.47,0,0.85,0.16,1.14,0.47c0.29,0.31,0.43,0.72,0.43,1.23c0,0.55-0.15,0.98-0.44,1.3
			S32.69,36,32.2,36z M32.22,33.02c-0.31,0-0.56,0.11-0.75,0.34c-0.19,0.23-0.29,0.53-0.29,0.91c0,0.37,0.09,0.67,0.28,0.9
			c0.19,0.23,0.43,0.34,0.74,0.34c0.32,0,0.58-0.11,0.76-0.33c0.19-0.22,0.28-0.52,0.28-0.91c0-0.4-0.09-0.71-0.27-0.93
			C32.79,33.13,32.54,33.02,32.22,33.02z"/>
		<path class="st0" d="M35.77,34.06c-0.07-0.05-0.16-0.08-0.28-0.08c-0.16,0-0.3,0.07-0.4,0.22c-0.11,0.15-0.16,0.34-0.16,0.59v1.15
			h-0.54v-2.4h0.54v0.49h0.01c0.05-0.17,0.13-0.3,0.24-0.39c0.11-0.09,0.23-0.14,0.37-0.14c0.1,0,0.17,0.01,0.22,0.04V34.06z"/>
		<path class="st0" d="M36.71,35.6L36.71,35.6l-0.01,0.35h-0.54v-3.55h0.54v1.57h0.01c0.19-0.32,0.46-0.48,0.82-0.48
			c0.3,0,0.54,0.11,0.71,0.32c0.17,0.21,0.26,0.5,0.26,0.86c0,0.4-0.1,0.72-0.29,0.96S37.75,36,37.42,36
			C37.1,36,36.87,35.87,36.71,35.6z M36.69,34.64v0.3c0,0.17,0.06,0.32,0.17,0.45c0.11,0.12,0.25,0.18,0.43,0.18
			c0.2,0,0.36-0.08,0.47-0.24c0.11-0.16,0.17-0.38,0.17-0.66c0-0.24-0.05-0.42-0.16-0.55c-0.11-0.13-0.25-0.2-0.43-0.2
			c-0.19,0-0.35,0.07-0.47,0.21C36.75,34.27,36.69,34.44,36.69,34.64z"/>
	</g>
</g>
</svg>
