<svg version="1" xmlns="http://www.w3.org/2000/svg" width="1066.667" height="1066.667" viewBox="0 0 800.000000 800.000000"><path d="M282.3 143.2c-1 1.8-2.3 4.2-3 5.3-.7 1.1-1.8 3.2-2.5 4.7-.7 1.6-1.6 2.8-2 2.8-.4 0-.8.5-.8 1 0 .6-2.1 4.5-4.6 8.8-4.9 8.3-5.5 9.4-9.3 16.2-1.4 2.5-2.8 4.7-3.1 5-.4.3-1.3 1.8-2.1 3.5-.9 1.6-7.5 13.3-14.7 25.8-7.3 12.6-13.2 23.2-13.2 23.7s-.3 1-.8 1.2c-.6.2-10.6 17.1-15.6 26.3-.6 1.1-1.3 2.2-1.6 2.5-.3.3-1.6 2.5-2.9 5-1.4 2.5-9.7 17.1-18.7 32.5-8.9 15.4-17.2 29.8-18.4 32-1.2 2.2-2.6 4.5-3.2 5.2-.6.8-.1 2.6 1.6 5.5 1.4 2.4 3.8 6.5 5.4 9.3 1.6 2.7 5.5 9.5 8.7 15 3.2 5.5 6.8 11.8 8 14.1 1.3 2.2 3.5 5.9 4.9 8.2 1.4 2.3 2.6 4.6 2.6 5.2 0 .5.5 1 1 1 .6 0 .9.3.8.7-.1.5.5 1.9 1.4 3.3 3.9 6.1 16.8 29.1 16.8 30 0 .5.4 1 .9 1s1.1.8 1.4 1.7c.4 1 1.8 3.8 3.3 6.3 1.5 2.5 3.5 5.8 4.4 7.5.9 1.6 2.3 4.1 3.2 5.5.9 1.4 2.6 4.4 3.9 6.7 1.3 2.3 4.8 8.3 7.8 13.5 3 5.1 6.2 10.8 7.3 12.5 3.9 7.1 5.9 10.4 15.7 27.2 5.5 9.6 10.1 17.5 10.1 17.6 0 .1 2.3 4 5 8.6 4.3 7.2 5.1 8.1 5.6 6.1.4-1.2 1-2.2 1.5-2.2s.9-.4.9-.9c0-1.3 26.2-46.5 27.2-46.9.4-.2.8-1 .8-1.9 0-.8.8-2.7 1.9-4.1 1-1.5 3-4.7 4.3-7.2 1.4-2.5 5.6-9.8 9.3-16.2l6.6-11.7-2.7-4.8c-1.5-2.6-3.2-5.8-3.8-7-1.7-3.4-3.3-3.5-4.6-.2-.7 1.6-1.6 2.9-2.1 2.9s-.9.7-.9 1.5-1.6 3.9-3.5 6.9c-1.9 3-3.5 5.7-3.5 5.9 0 .3-1.8 3.5-4.1 7.2-2.2 3.7-5 8.4-6.1 10.4-7.2 13-20.5 35.8-21.4 36.8-.9.9-3.4-2.6-10.5-15-5.2-8.9-9.6-16.6-9.8-17.2-.2-.5-.7-1.2-1-1.5-.4-.3-1.2-1.6-1.9-3s-2.3-4.3-3.7-6.5c-1.3-2.2-2.7-4.7-3.1-5.5-.5-.8-5.2-9.1-10.6-18.3-5.4-9.3-9.8-17.2-9.8-17.8 0-.5-.4-.9-1-.9-.5 0-1-.4-1-1 0-.5-2.2-4.7-4.9-9.2-2.7-4.6-5.9-10.1-7.1-12.3-1.3-2.2-3.1-5.4-4.1-7-1-1.7-2.7-4.6-3.7-6.5-1-1.9-3.9-7-6.5-11.2-2.6-4.2-4.7-7.9-4.7-8.1 0-.2-2.5-4.6-5.5-9.6-3-5.1-5.5-9.6-5.5-10.1 0-.6-.3-1-.8-1-.4 0-1.3-1.5-2.1-3.3-.8-1.7-1.7-3.4-2-3.7-.3-.3-1.1-1.5-1.8-2.6-1-1.9-.5-3.3 4-11 2.9-4.9 7-12.1 9.2-15.9 2.2-3.9 4.5-7.9 5.2-9 .7-1.1 1.8-3.1 2.5-4.5s1.6-2.7 2-3c.4-.3 1.2-1.7 1.7-3 .6-1.4 2.3-4.3 3.6-6.5 1.4-2.2 2.8-4.7 3.2-5.5.4-.8 3-5.4 5.9-10.1 2.8-4.7 5.5-9.6 5.8-10.7.4-1.2 1.2-2.2 1.7-2.2s.9-.4.9-.9 2.3-4.7 5-9.4c2.8-4.7 5-9 5-9.5 0-.6.4-1.2.8-1.4.5-.2 2.7-3.7 5-7.8s5.3-9.3 6.7-11.5c1.4-2.2 2.8-4.7 3.2-5.5.8-1.6 23.7-41.4 27-46.8l2-3.3 6.2 10.7c3.3 5.8 6.1 11 6.1 11.5s.5.9 1 .9c.6 0 1 .4 1 .9 0 .6 1.5 3.6 3.4 6.8 1.9 3.2 4.4 7.7 5.7 9.9 13.5 23.6 20.5 35.4 21.1 35.4.6 0 8.8-13.6 8.8-14.6 0-.3-3.7-6.9-8.2-14.7-4.5-7.8-8.8-15.3-9.5-16.7-.8-1.4-2.3-4.1-3.5-6-1.1-1.9-3.1-5.3-4.3-7.5-1.3-2.2-6.2-10.8-11.1-19-4.8-8.3-9.4-16.4-10.3-18-2.4-4.5-6.2-10.5-6.7-10.5-.2 0-1.1 1.5-2.1 3.2z"/><path d="M401.4 144c-1 2.2-2.2 4-2.6 4-.5 0-.8.4-.8.9 0 .8-15.7 28.3-39.5 69.1-4 6.9-8.3 14.3-9.5 16.5-1.2 2.2-4.7 8.2-7.6 13.2-3 5.1-5.3 9.5-5.2 9.7.2.2-.4 1.2-1.3 2.2-.9 1.1-5.8 9.3-11 18.4-5.1 9.1-9.6 16.7-9.9 17-.3.3-1.1 1.6-1.7 3-.7 1.4-2.6 4.7-4.3 7.5-1.6 2.7-3.3 5.6-3.7 6.4-.3.8-3.5 6.4-7.1 12.5-13.4 23.2-12.6 21.4-11.1 24.4.7 1.5 2.5 4.5 3.8 6.7 1.4 2.2 3.3 5.3 4.2 7 .9 1.6 13.4 23.4 27.9 48.4 14.4 25 27.1 47.1 28.3 49.3 1.2 2.1 2.7 4.7 3.2 5.6 2.2 3.8 24.8 42.7 33.4 57.5 5 8.8 9.1 16.3 9.1 16.8s.5.9 1 .9c.6 0 1 .4 1 1 0 .5 1.5 3.3 3.2 6.2l3.3 5.3.9-2.8c.6-1.5 1.3-2.7 1.8-2.7.4 0 .8-.4.8-1 0-.5 1.3-3.1 2.9-5.7 2.7-4.5 23.6-40.8 27.8-48.3 1.1-1.9 3.4-5.8 5-8.6 1.7-2.7 4.1-7 5.5-9.5 1.4-2.4 3.9-6.7 5.6-9.6l3.1-5.2-3.5-5.6c-1.9-3.2-3.4-5.8-3.4-6 0-.1-4.3-7.6-9.6-16.6-10.3-17.5-13-22.2-17.7-30.9-1.7-3-3.8-6.6-4.9-7.9-1-1.3-1.8-2.8-1.8-3.3 0-.6-1.3-3-3-5.5-1.6-2.4-3-4.6-3-4.8 0-.2-2.2-4.1-5-8.8-2.7-4.7-5-9-5-9.6 0-.6-.4-1.1-1-1.1-.5 0-1-.6-1-1.4 0-.8-.4-1.6-.8-1.8-.5-.2-2-2.7-3.5-5.6-2.1-4.4-2.4-5.8-1.5-7.8.6-1.3 1.5-2.4 2-2.4.4 0 .8-.5.8-1.1 0-.6 1.6-3.8 3.6-7.2 2-3.4 4.4-7.6 5.4-9.2 1.7-3 29.8-51.4 33-57 1-1.7 4.2-7.3 7.2-12.5s6.8-11.8 8.5-14.5c3.7-6.3 4.4-8.3 3.3-9-.5-.3-1.5-1.8-2.3-3.3-.8-1.5-5.6-9.9-10.7-18.7-5.1-8.8-10.1-17.6-11.2-19.5-1.1-1.9-4.2-7.2-6.9-11.8-2.7-4.5-4.9-8.6-4.9-9 0-.5-.5-1.3-1.2-2-1.6-1.6-7.3-11.6-9.5-16.5-.9-2-1.9-3.7-2.3-3.7-.4 0-1.3-1.4-2-3-.7-1.7-1.6-3-2-3-.4 0-1.5 1.8-2.6 4z"/><path d="M512.3 158.9c-4.6 7.8-8.3 14.6-8.3 15.1 0 .6-.3 1-.7 1-.5 0-1.3 1-1.9 2.3-.6 1.2-3.7 6.7-6.9 12.2-3.2 5.5-6.9 12-8.3 14.5-1.4 2.5-3.3 5.6-4.2 7-.9 1.4-1.9 2.9-2.1 3.5-.3.9-9.7 17.3-15.3 26.8-7.6 13.1-24.4 42-26.4 45.7-1.4 2.5-7 12.1-12.4 21.4-5.4 9.3-9.8 17-9.8 17.2 0 .2-1.6 2.8-3.5 5.8s-3.5 5.8-3.5 6.2c0 .5-1.1 2.4-2.5 4.5l-2.6 3.6 2.1 3.9c1.2 2.2 3.4 5.9 5 8.4s2.9 5.1 2.9 5.7c.2 2.7 2.9 1.1 4.7-2.7 1-2.2 2.2-4 2.7-4 .4 0 .7-.5.7-1 0-.6 1.7-3.8 3.8-7.3 2-3.4 4.8-8.3 6.2-11 1.4-2.6 2.8-4.7 3.2-4.7.5 0 .8-.5.8-1.1 0-.6 2.3-4.8 5-9.5 2.8-4.7 5-8.9 5-9.4 0-.6.5-1 1-1 .6 0 1-.4 1-.9 0-.8 13.7-25.3 17.9-32.1 2.4-3.7 21.6-37.5 22-38.4.2-.6.7-1.3 1-1.6.4-.3 3.4-5.2 6.6-11 10.4-18.1 11-19.2 18.4-31.9l7.1-12.4-.2-19.5-.3-19.5-8.2 14.2zM526 234v201.4c0 61.6.1 112.1.3 112.2.2.3 17.7-29.7 24-41.1 1.2-2.2 2.5-4.1 3-4.3.4-.2.7-.7.7-1.2 0-.4 3-5.9 6.7-12.1 3.7-6.3 7.3-12.9 8.2-14.7.8-1.7 1.9-3.2 2.3-3.2.4 0 .8-.5.8-1.1 0-.6 2.4-5.2 5.4-10.2 3-5.1 12.7-21.8 21.6-37.2 15.3-26.4 17.9-31 22.8-39.5 1.1-1.9 6.3-11 11.6-20.2l9.7-16.8-7.1-11.9c-3.8-6.6-7-12.4-7-13 0-.6-.4-1.1-.9-1.1s-1.3-1-1.7-2.3c-.3-1.2-1.4-3.3-2.4-4.7-1.9-2.7-6.7-11.1-8.4-14.7-.6-1.3-1.4-2.3-1.8-2.3-.5 0-.8-.5-.8-1 0-.6-3.9-7.7-8.6-15.8-4.8-8.1-9.8-16.7-11.2-19.2-1.4-2.5-3.4-5.9-4.4-7.5-1-1.7-2.1-3.7-2.5-4.5-.4-.8-3.3-5.9-6.5-11.3s-5.8-10-5.8-10.3c0-.2-1.6-2.8-3.5-5.8s-3.5-6-3.5-6.6c0-.5-.4-1-1-1s-.9-.3-.8-.8c.1-.4-.5-1.8-1.4-3.2-1.7-2.7-7.6-12.9-11.6-20-5-8.9-23.5-40.5-24.8-42.5-1.2-1.7-1.4 10.9-1.4 87.5zM518.6 200.3c-1 1.8-2.8 4.8-3.9 6.7-1.1 1.9-2.8 4.8-3.8 6.5-1 1.6-2.5 4.3-3.4 6-.8 1.6-2.4 4.3-3.5 6-1.1 1.6-2.3 3.7-2.7 4.5-.8 1.9-6.3 11.4-8.5 14.8-1 1.5-2.4 4-3.2 5.7-.9 1.6-2.9 5.2-4.6 8-1.7 2.7-3.5 5.9-4.1 7-.5 1.1-1.5 2.9-2.2 4-.7 1.1-3.6 6.3-6.6 11.5-3 5.2-6.1 10.3-6.9 11.2-.8 1-1.1 1.8-.7 1.8.4 0 .1.8-.7 1.7-.9 1-2.5 3.6-3.7 5.8-1.2 2.2-2.6 4.7-3.1 5.5-.5.8-3.7 6.2-7 12s-6.5 11.2-7 12c-.6.8-1.3 2.2-1.7 3-.4.8-2.7 4.9-5.2 9-2.4 4.1-5.8 10-7.4 13-1.7 3-4.5 8-6.4 11l-3.2 5.4 2.6 4.6c6 10.3 7.6 12.5 8.1 11 .3-.8 4.5-8.4 9.4-16.8s10.1-17.4 11.5-20c1.4-2.6 3.4-5.9 4.4-7.3 1-1.5 2.3-3.7 2.9-5 .6-1.3 2-4 3.1-5.9 2.2-3.6 26.6-45.7 30.1-52 1.1-1.9 3.7-6.4 5.8-10 2.1-3.6 4.8-8.3 6.1-10.5 4.1-7.2 8.4-14.6 9.4-16.3.6-1 2.7-4.7 4.8-8.4l3.7-6.7-.2-16-.3-16-1.9 3.2zM509 262.7c-6.3 10.9-12 20.7-12.6 21.8-.6 1.1-5 8.7-9.8 17-4.9 8.2-9.8 16.8-11.1 19.1-4.5 8.1-5 8.9-5.5 9.4-.3.3-1.1 1.6-1.8 3-.6 1.4-2.8 5.2-4.7 8.5-2 3.3-4.5 7.9-5.7 10.2-1.2 2.4-2.6 4.3-3 4.3-.4 0-.8.4-.8 1 0 .5-1.9 4.2-4.3 8.2-2.4 4-4.6 8-5 8.8-.4.8-1.8 3.3-3.2 5.5-1.4 2.2-3 4.9-3.5 6-.6 1.1-1.9 3.3-2.9 5-3.1 4.8-3 5 5.8 19.5.5.8 1.1 1.3 1.4 1 .2-.3 3.9-6.6 8.2-14 10.4-17.9 24.4-42.1 25.5-44 5.1-8.3 13-22.4 13-23 0-.5.6-1.5 1.3-2.2 1.6-1.8 4.4-6.6 5.8-10.1.6-1.5 1.5-2.7 2-2.7s.9-.5.9-1c0-.6 5-9.6 11-20l11-19.1-.2-16-.3-16-11.5 19.8zM508 310c-6.9 11.8-12.7 21.9-12.9 22.5-.2.5-1.6 2.8-3 5s-2.6 4.2-2.6 4.5c0 .3-.8 1.6-1.7 3-1.5 2.5-14.8 25.4-19.5 34-1.4 2.5-3.1 5.2-3.7 6-.7.8-1.7 2.6-2.4 4-.6 1.4-2.3 4.3-3.7 6.5-1.4 2.2-2.8 4.7-3.2 5.5-1.8 3.8-8.8 15.5-9.4 15.8-.4.2.8 3.1 2.7 6.5 1.9 3.4 4 7.2 4.6 8.4.6 1.3 1.4 2.3 1.7 2.3.3 0 5.3-8.2 11.1-18.2s11-19 11.5-19.9c.6-.9 3.3-5.6 6-10.4 2.8-4.7 5.5-9.4 6-10.4 1.3-2.1 12.3-21.2 15.1-26 1.1-2 3-5.3 4.2-7.4 2.4-4.1 4.3-7.4 9.1-15.8l3.2-5.7-.3-15.8-.3-15.9L508 310zM516.9 340.2c-2 3.5-4.5 7.9-5.6 9.8-1.1 1.9-6.8 11.8-12.8 22-5.9 10.2-11.9 20.5-13.3 23-1.3 2.5-5 8.8-8 14-3.1 5.2-5.4 9.7-5.3 9.9.2.2-.1.7-.6 1-1 .6-12.3 20.3-12.3 21.3 0 .3 2.1 4.1 4.7 8.3 4.2 7.1 4.8 7.6 5.6 5.7.6-1.2 1.4-2.2 1.9-2.2.4 0 .8-.5.8-1.1 0-.9 8.6-16.2 12.9-22.9.8-1.4 1.6-2.7 1.6-3 0-.3.8-1.6 1.7-3 1.4-2.2 9-15.4 15.3-26.5 1.3-2.2 4.6-8.1 7.5-13 11.1-19.1 10.1-15.5 9.8-33.6l-.3-16-3.6 6.3zM517.1 385.5c-4.8 8.4-34.8 60-37.2 63.8-1 1.8-2.4 4.3-3 5.7-.6 1.4-1.6 3.2-2.3 4-.7.8-1.6 2.2-1.9 3.1-.6 1.7 2.6 8.4 6.8 14.7l2.2 3.3 5.9-10.3c3.2-5.7 6.5-11.5 7.4-12.9 3.1-5.5 22.6-39.1 24.3-42 1.5-2.7 1.7-5.2 1.5-19.2l-.3-16.2-3.4 6zM516.4 432.2c-2.2 4-10.1 17.6-17.4 30.3-7.3 12.6-13.4 23.2-13.5 23.5-.2.3 1.8 4.3 4.4 8.8l4.7 8.2 11.4-20.1c6.3-11 12.2-20.8 13-21.6 1.1-1.3 1.6-4.8 1.8-14.2.2-6.9.2-14.7 0-17.4l-.3-4.7-4.1 7.2zM514 481.9c-3.6 6.3-8 13.9-9.8 17-1.8 3.1-3.6 6.3-3.9 7.1-.4.8-1.1 1.8-1.6 2.1-.5.4-.3 1.7.6 3 .8 1.3 2.4 4.1 3.4 6.1l2 3.7 5.9-10.2c3.2-5.6 6.4-11.1 7.1-12.2 2.9-4.8 3.4-7.3 3.1-17.4l-.3-10.6-6.5 11.4zM517.9 510.2c-1.3 2.4-2.9 5.2-3.6 6.3-.7 1.1-1.5 2.7-1.9 3.5-.4.8-1.5 2.7-2.5 4.1-1.8 2.5-1.7 2.6 4.6 13.5l6.5 10.9v-21.3c0-11.6-.1-21.2-.3-21.2-.2 0-1.4 1.9-2.8 4.2zM336.9 607.4c-.1.6-.2 13.4-.3 28.4l-.1 27.2h4.3c2.3 0 4.3-.3 4.3-.8.1-.4.2-5.9.3-12.2.3-14.8 2.3-18.9 9.2-19 5.9 0 6.9 2.4 7.2 18.1l.4 13.9h8.8v-13.3c0-14.9-.9-19.3-4.6-22.8-2.1-2-3.6-2.4-8.4-2.4-5.1 0-6.3.4-8.8 2.8-1.7 1.6-3.2 2.5-3.4 2-.3-.4-.4-5.8-.4-11.8l.1-11-4.2-.2c-2.6 0-4.3.4-4.4 1.1zM578.5 634.7v28.1l4.3.4c3.8.3 4.2.1 4.2-1.9 0-2.8 1.1-2.9 3.4-.4 2.3 2.6 8.4 3.5 13.4 2.1 9.1-2.4 14.2-14.6 11.2-26.7-1.5-6.3-5.6-11-10.5-11.9-.5-.1-1.4-.3-2-.5-2.9-.9-9.5 1.3-12.3 4.2l-3 3.1v-10.8c0-6 0-11.6-.1-12.4-.1-1.2-1.2-1.6-4.3-1.6l-4.3.1v28.2zm25-1.5c5 4.4 3.9 18.3-1.7 22.2-3.8 2.7-8.5 2-11.8-1.6-2.6-2.8-3-3.9-2.9-8.8.2-6.6 1-9.1 4-11.9 3.1-2.9 9-2.8 12.4.1zM382.3 607.6c-1.4.6-1.7 5.2-.5 7 1.4 2.3 4.9 2.5 7.3.5 2-1.6 2.2-2.3 1.4-4.7-.8-2.2-1.7-2.9-4-3.1-1.7-.1-3.6 0-4.2.3zM507.7 609.9c-9.1 2.5-15.8 10.1-17.3 19.7-1.1 7-1.1 8.3-.2 13.6 1 5.4 5.5 13.2 9.2 15.8 4.5 3.3 10.1 4.8 16.6 4.5 7.7-.4 8.5-.6 12.6-2.8 11.2-5.9 16.1-24.9 9.9-38.2-5.6-11.7-17-16.4-30.8-12.6zm15.2 8.1c4.9 2 8.3 8.6 8.6 16.7.3 8.4-1 12.6-5.3 16.9-4 4-6 4.6-12.6 4-9.3-.8-13.8-6.8-14.2-18.6-.3-6.6 0-8.1 2.3-12 1.5-2.5 3.4-5.1 4.2-5.7 3.9-3.1 11.4-3.6 17-1.3zM229.5 609.9c-.3.2-.5 12.3-.5 26.8V663l2.3.1c2.7.2 6.1-.2 6.6-.7.2-.2.3-5 .3-10.8-.1-7.4.2-10.5 1.1-10.8.7-.2 4.9-.3 9.3-.3l8.2.2-.1-3.9-.1-3.8H238l.2-8 .1-8h19.8l-.3-3.7-.3-3.8h-13.8c-7.6-.1-14 .1-14.2.4zM313.7 623.6c-.2.2-1.2.5-2.3.7-3.2.5-8.2 3.9-9.3 6.4-1.7 3.7-1.3 7.8 1 10.6 1.9 2.6 4.2 3.9 12.2 7.1 2 .8 3.7 1.9 3.8 2.3 0 .4.2 1.6.4 2.6.5 2.6-4.9 4.7-10.3 4-2.3-.3-4.5-1-4.8-1.4-1.2-2-3.4-.8-3.4 1.8 0 4.4 1.2 5.3 7.8 5.9 7.1.7 13.5-1.1 17-4.9 1.8-1.9 2.8-5.1 2.2-6.7-.1-.3-.3-1.6-.6-2.9-.6-3.1-4.6-6.5-9.6-8.2-2.2-.7-5.1-2.1-6.4-3.1-2-1.6-2.2-2.2-1.2-4.3.6-1.3 2.1-2.6 3.4-2.9 2.9-.8 9.5.2 11.2 1.7 1.1.8 1.3.2 1-3.3-.2-3.4-.7-4.4-2.3-4.6-4.8-.7-9.5-1.1-9.8-.8zM416.5 623.8c-11.8 2.1-18 10-17.4 22.1.6 12 9.2 19 21.7 17.7 11-1.2 17.4-8.5 17.4-19.8 0-7.2-3.3-14.5-7.8-17-3.4-2-10.8-3.6-13.9-3zm8.7 8.9c3.6 4.1 4.8 9.7 3.5 16.5-.7 4-4.5 7.1-9 7.5-3.8.4-4.9.1-7.6-2.4-6.3-5.6-5.5-18.9 1.3-22.2 3.5-1.6 10.1-1.3 11.8.6zM270 625.3c-4.9 1.2-5.9 2.3-5.6 6 .3 3.6.2 3.6 3.6 1.5 4-2.6 10.5-3 13.4-.7 2.7 2.1 4 5.8 2.3 6.5-.7.2-3.2.6-5.7.8-2.5.3-4.7.6-5 .7-.3.1-.9.2-1.5.3-2.2.4-6.7 2.7-8 4-3.8 3.7-3.3 13 .8 17 2.6 2.7 10.9 3.2 14.6 1 1.7-1 3.1-2.1 3.1-2.5 0-.4.6-.9 1.4-1.2.9-.4 1.2.2 1 1.9-.2 2.2.1 2.4 4.2 2.4h4.5l-.2-14.9c-.1-12.8-.4-15.3-2-18-3.4-5.5-11.2-7.3-20.9-4.8zm14.4 23c-.8 6.5-6.1 10.4-11.4 8.5-2.9-1.1-4-2.5-4-5.4 0-3 2.9-5.1 8-5.9 2.5-.4 4.7-.8 4.8-1 .2-.2 1-.1 1.7.1.9.4 1.2 1.7.9 3.7zM381.6 625c-.2.3-.3 8.9-.3 19.2V663h8.7v-19c0-10.5-.3-19-.7-19.1-3-.4-7.5-.4-7.7.1zM449.9 624.8l-2.7.3V663h8.8v-4.8c0-2.6.1-8.6.2-13.4.3-7.6.6-9 2.7-11.2 3.5-3.7 9.4-3.6 11.8 0 1.9 2.9 2.1 5.1 2.2 19.6l.1 9.8h8.6l-.1-14.8c-.2-16.2-1.2-20-6.3-22.6-3.1-1.6-10.9-1.9-11.7-.5-.4.5-1 .7-1.5.4-.5-.3-1.7.6-2.8 2-2.5 3.1-3.2 3.2-3.2.1 0-2.6-1.7-3.4-6.1-2.8zM550.6 624.9c-.2.3-.3 9-.4 19.3V663h8.8v-11.5c0-8.6.4-12.4 1.6-14.6 1.8-3.6 7-6.2 9.6-4.8 2.1 1.1 2 1.4 2.2-3.4.1-3.2-.3-3.9-2.2-4.4-3.1-.7-7.7 1.3-9.2 4.3-1.8 3.3-2.7 3-2.2-.6.2-1.7 0-3-.4-3.1-4.8-.5-7.6-.5-7.8 0z"/></svg>